<?xml version="1.0" standalone="no"?>
<!DOCTYPE svg PUBLIC "-//W3C//DTD SVG 20010904//EN"
 "http://www.w3.org/TR/2001/REC-SVG-20010904/DTD/svg10.dtd">
<svg version="1.0" xmlns="http://www.w3.org/2000/svg"
 width="26.000000pt" height="26.000000pt" viewBox="0 0 26.000000 26.000000"
 preserveAspectRatio="xMidYMid meet">

<g transform="translate(0.000000,26.000000) scale(0.100000,-0.100000)"
fill="#000000" stroke="none">
<path d="M37 202 c-35 -38 -19 -76 60 -146 l32 -29 43 37 c68 59 86 107 50
139 -22 20 -63 22 -80 5 -9 -9 -15 -9 -24 0 -18 18 -63 14 -81 -6z m75 -19
c17 -15 19 -15 37 1 23 21 49 18 64 -6 15 -23 -3 -60 -48 -93 l-36 -28 -37 30
c-44 36 -61 75 -42 97 16 21 39 20 62 -1z"/>
</g>
</svg>
