<?xml version="1.0" standalone="no"?>
<!DOCTYPE svg PUBLIC "-//W3C//DTD SVG 1.1//EN" "http://www.w3.org/Graphics/SVG/1.1/DTD/svg11.dtd" >
<svg xmlns="http://www.w3.org/2000/svg" xmlns:xlink="http://www.w3.org/1999/xlink" version="1.1">
<metadata></metadata>
<defs>
<font id="pp_morisemibold" horiz-adv-x="1243" >
<font-face units-per-em="2048" ascent="1638" descent="-410" />
<missing-glyph horiz-adv-x="446" />
<glyph horiz-adv-x="0" />
<glyph horiz-adv-x="682" />
<glyph unicode="&#xd;" horiz-adv-x="1228" />
<glyph unicode=" "  horiz-adv-x="446" />
<glyph unicode="&#x09;" horiz-adv-x="446" />
<glyph unicode="&#xa0;" horiz-adv-x="446" />
<glyph unicode="!" horiz-adv-x="540" d="M113 131q0 66 45 111t112 45t112.5 -45t45.5 -111q0 -67 -45 -112.5t-113 -45.5q-67 0 -112 45t-45 113zM150 410v1126h243v-1126h-243z" />
<glyph unicode="&#x22;" horiz-adv-x="839" d="M129 860v676h217v-676h-217zM494 860v676h217v-676h-217z" />
<glyph unicode="#" horiz-adv-x="1693" d="M66 344v186h368l88 359h-325v186h370l101 418l204 -47l-88 -371h303l101 418l207 -47l-90 -371h323v-186h-368l-86 -359h323v-186h-371l-94 -391l-205 47l84 344h-305l-94 -391l-205 47l82 344h-323zM651 530h305l86 359h-305z" />
<glyph unicode="$" horiz-adv-x="1339" d="M88 442h252q13 -92 80 -154t180 -87v438l-41 12q-158 48 -230 88q-200 109 -200 318q0 171 127 284t344 123v230h166v-238q206 -31 327.5 -157t133.5 -324h-250q-6 95 -60 161t-151 93v-402l88 -26q53 -17 87.5 -28.5t83 -32.5t79.5 -41t65.5 -51.5t54.5 -66.5t33 -83.5 t13 -104.5q0 -189 -136 -302.5t-368 -121.5v-245h-166v253q-226 31 -363 154.5t-149 310.5zM373 1069q0 -33 13 -60t30 -44t52 -34t59.5 -26t72.5 -24v364q-105 -8 -166 -54t-61 -122zM766 188q124 6 189 56t65 137q0 79 -55 122t-172 79l-27 8v-402z" />
<glyph unicode="%" horiz-adv-x="1861" d="M61 1077q0 171 95.5 279t246.5 108q152 0 248.5 -104t96.5 -270q0 -170 -96.5 -279t-248.5 -109q-151 0 -246.5 104.5t-95.5 270.5zM242 1083q0 -95 45 -155t116 -60q72 0 118 60.5t46 156.5q0 95 -44.5 155t-116.5 60t-118 -60.5t-46 -156.5zM334 27l1032 1493l180 -84 l-1034 -1495zM1114 346q0 172 96 279t248 106q151 -2 246.5 -106.5t95.5 -268.5q0 -170 -95.5 -278.5t-246.5 -108.5q-152 0 -248 105.5t-96 271.5zM1294 350q0 -95 46 -155t118 -60t118 60.5t46 156.5q0 95 -45.5 155t-116.5 60q-74 0 -120 -60t-46 -157z" />
<glyph unicode="&#x26;" horiz-adv-x="1460" d="M84 391q0 80 27.5 148t79 121t105 90.5t124.5 74.5q-71 81 -107.5 154.5t-36.5 155.5q0 142 106 235.5t267 93.5q163 0 271.5 -93.5t109.5 -237.5q0 -62 -21 -115t-62 -95t-85.5 -73.5t-105.5 -63.5l303 -309q52 137 55 326h223q0 -291 -110 -494l198 -203l-168 -149 l-170 178q-183 -166 -456 -166q-245 0 -396 116.5t-151 305.5zM332 414q0 -105 83.5 -168.5t227.5 -63.5q181 0 293 109l-381 393q-51 -27 -87.5 -52.5t-69.5 -58t-49.5 -72.5t-16.5 -87zM508 1122q0 -48 26.5 -94t83.5 -106q87 44 133 89.5t46 110.5q0 62 -40.5 102 t-103.5 40t-104 -40t-41 -102z" />
<glyph unicode="'" horiz-adv-x="464" d="M129 856v680h207v-680h-207z" />
<glyph unicode="(" horiz-adv-x="667" d="M131 627q0 256 86 507.5t240 434.5l186 -72q-139 -165 -217 -396.5t-76 -473.5q0 -235 78.5 -461.5t218.5 -384.5l-190 -66q-153 169 -239.5 412.5t-86.5 499.5z" />
<glyph unicode=")" horiz-adv-x="667" d="M20 -219q140 158 218.5 384.5t78.5 461.5q2 242 -75.5 473.5t-216.5 396.5l186 72q154 -183 240 -434.5t86 -507.5t-86.5 -499.5t-239.5 -412.5z" />
<glyph unicode="*" horiz-adv-x="1019" d="M63 899l279 164l-279 160l82 149l279 -162v301h172v-301l281 162l79 -149l-276 -160l276 -162l-82 -149l-278 161v-303h-172v301l-279 -161z" />
<glyph unicode="+" horiz-adv-x="1169" d="M76 528v199h399v389h221v-389h398v-199h-398v-385h-221v385h-399z" />
<glyph unicode="," horiz-adv-x="505" d="M10 -350l226 712l194 -59l-233 -711z" />
<glyph unicode="-" horiz-adv-x="1067" d="M76 528v199h915v-199h-915z" />
<glyph unicode="." horiz-adv-x="468" d="M78 131q0 66 44.5 111t110.5 45q67 0 112.5 -45t45.5 -111q0 -67 -45.5 -112.5t-112.5 -45.5q-66 0 -110.5 45.5t-44.5 112.5z" />
<glyph unicode="/" horiz-adv-x="763" d="M8 -176l539 1802l221 -61l-543 -1807z" />
<glyph unicode="0" horiz-adv-x="1304" d="M84 721q0 336 154.5 539.5t414.5 203.5q256 0 412 -202.5t156 -540.5t-155 -545t-413 -207q-257 0 -413 205t-156 547zM332 721q0 -240 87 -382t234 -142q146 0 233 142.5t87 381.5q0 236 -87 377t-233 141q-147 0 -234 -140.5t-87 -377.5z" />
<glyph unicode="1" horiz-adv-x="782" d="M47 924v235h16q160 0 243 65t83 189v21h244v-1434h-246v1067q-103 -143 -324 -143h-16z" />
<glyph unicode="2" horiz-adv-x="1173" d="M82 958q17 238 163.5 372t368.5 134q215 0 347.5 -120.5t132.5 -315.5q0 -85 -27.5 -157t-73.5 -122t-105.5 -96t-122 -80.5t-125 -74t-113 -77t-87.5 -89.5t-47 -111h674v-221h-952v135q0 88 25 163t67 129t97 100.5t115.5 83.5t120.5 71.5t115 69.5t97 73t67 87.5 t25 107.5q0 100 -64.5 161.5t-169.5 61.5q-116 0 -191.5 -75.5t-78.5 -209.5h-258z" />
<glyph unicode="3" d="M61 457h252q10 -124 100.5 -195.5t233.5 -71.5q131 0 209 61t78 163q0 100 -77 157.5t-212 57.5h-223v202h223q106 0 170 59t64 146q0 90 -67 148.5t-173 58.5q-109 0 -185 -64t-89 -169h-254q22 206 168.5 330t367.5 124q209 0 343 -108t134 -275q0 -127 -79 -218.5 t-209 -119.5q159 -29 248.5 -125.5t89.5 -238.5q0 -184 -145 -298t-382 -114q-255 0 -414.5 132t-171.5 358z" />
<glyph unicode="4" horiz-adv-x="1294" d="M66 319v218l694 897h248v-893h247v-222h-247v-319h-246v319h-696zM332 541h430v557z" />
<glyph unicode="5" horiz-adv-x="1249" d="M86 438h260q17 -112 99 -178.5t200 -66.5q127 0 203 79t76 199q0 118 -75 197.5t-200 79.5q-139 0 -248 -115h-274l127 801h852v-224h-649l-64 -407q132 145 332 145q196 0 321 -133t125 -342q0 -224 -146.5 -365t-381.5 -141q-226 0 -377.5 127t-179.5 344z" />
<glyph unicode="6" horiz-adv-x="1306" d="M84 721q0 342 169.5 542.5t455.5 200.5q218 0 362.5 -125.5t163.5 -330.5h-252q-10 104 -87.5 169.5t-190.5 65.5q-176 0 -279.5 -132.5t-112.5 -354.5v-70q47 123 165 201t274 78q208 0 340.5 -136t132.5 -352q0 -224 -145 -366t-375 -142q-190 0 -331.5 96 t-215.5 265.5t-74 390.5zM403 475q0 -133 86 -209t203 -76q115 0 199 75.5t84 211.5t-83 210.5t-198 74.5q-116 0 -203.5 -77t-87.5 -210z" />
<glyph unicode="7" horiz-adv-x="1103" d="M45 1212v222h1018v-222l-641 -1212h-283l654 1212h-748z" />
<glyph unicode="8" horiz-adv-x="1286" d="M72 393q0 123 80 216t221 139q-113 49 -174.5 136t-61.5 193q0 163 138 275t370 112q230 0 367 -111.5t137 -275.5q0 -104 -61.5 -191.5t-172.5 -137.5q140 -45 219.5 -138t79.5 -217q0 -86 -38 -162.5t-109 -135t-180 -92.5t-242 -34q-262 0 -417.5 121.5t-155.5 302.5z M328 422q0 -98 86.5 -163.5t230.5 -65.5t230 65.5t86 163.5q0 97 -86 163t-230 66t-230.5 -66t-86.5 -163zM383 1042q0 -95 72.5 -155t189.5 -60t189.5 60t72.5 155q0 93 -72.5 151t-189.5 58t-189.5 -58t-72.5 -151z" />
<glyph unicode="9" horiz-adv-x="1263" d="M76 416h250q17 -106 95.5 -166t199.5 -60q153 0 239 123.5t94 350.5q3 37 0 73q-27 -114 -126 -185t-246 -71q-223 0 -364.5 137.5t-141.5 352.5q0 218 146 355.5t374 137.5q276 0 431 -204t155 -551q0 -343 -150 -541.5t-414 -198.5q-225 0 -372 122t-170 325zM319 969 q0 -129 83 -205t204 -76q119 0 201 75t82 204q0 130 -81 205t-200 75q-120 0 -204 -75t-85 -203z" />
<glyph unicode=":" horiz-adv-x="468" d="M78 131q0 66 44.5 111t110.5 45q67 0 112.5 -45t45.5 -111q0 -67 -45.5 -112.5t-112.5 -45.5q-66 0 -110.5 45.5t-44.5 112.5zM78 963q0 66 44.5 110.5t110.5 44.5q67 0 112.5 -44.5t45.5 -110.5q0 -67 -45.5 -112.5t-112.5 -45.5q-66 0 -110.5 45.5t-44.5 112.5z" />
<glyph unicode=";" horiz-adv-x="524" d="M12 -350l226 712l194 -59l-235 -711zM123 963q0 66 45 110.5t111 44.5q67 0 112 -44.5t45 -110.5q0 -68 -45 -113t-112 -45q-66 0 -111 45.5t-45 112.5z" />
<glyph unicode="&#x3c;" horiz-adv-x="1171" d="M76 451v247l913 476l117 -177l-811 -424l811 -419l-117 -181z" />
<glyph unicode="=" horiz-adv-x="1189" d="M88 276v201h1016v-201h-1016zM88 723v203h1016v-203h-1016z" />
<glyph unicode="&#x3e;" horiz-adv-x="1171" d="M66 154l811 419l-811 424l116 177l914 -476v-247l-914 -478z" />
<glyph unicode="?" horiz-adv-x="1167" d="M70 958q17 238 163 372t371 134q215 0 346 -116.5t131 -290.5q0 -69 -21.5 -126.5t-56 -97.5t-76 -74.5t-83.5 -65.5t-76.5 -62.5t-56 -72.5t-21.5 -89v-82h-239v82q0 67 21 123.5t55 96t75 74t82.5 65.5t75.5 62t55 71.5t21 87.5q0 85 -64 139.5t-170 54.5 q-119 0 -196 -75.5t-78 -209.5h-258zM414 131q0 66 45 111t112 45t112.5 -45t45.5 -111q0 -67 -45.5 -112.5t-112.5 -45.5t-112 45t-45 113z" />
<glyph unicode="@" horiz-adv-x="1822" d="M94 555q0 184 64.5 342.5t178.5 271t276.5 176.5t351.5 64q169 0 313.5 -54.5t245.5 -150.5t158 -233t57 -297q0 -223 -103.5 -363.5t-265.5 -140.5q-95 0 -154.5 47.5t-64.5 120.5q-51 -80 -129 -124t-176 -44q-156 0 -253 105.5t-97 273.5q0 205 120 343t295 138 q93 0 166.5 -41t114.5 -112l35 124h112l-57 -571q-4 -50 20 -79t70 -29q88 0 143.5 96t55.5 246q0 257 -170.5 416t-442.5 159q-148 0 -275.5 -51.5t-216.5 -142t-139.5 -216.5t-50.5 -272q0 -290 190.5 -456.5t512.5 -166.5q230 0 428 95v-181q-192 -79 -436 -79 q-263 0 -461 94.5t-307 273t-109 418.5zM674 563q0 -109 58 -178.5t151 -69.5q99 0 169.5 79t82.5 202q13 127 -43.5 208t-159.5 81q-109 0 -183.5 -93t-74.5 -229z" />
<glyph unicode="A" horiz-adv-x="1492" d="M37 0l586 1434h245l588 -1434h-254l-145 354h-621l-145 -354h-254zM524 571h445l-221 545z" />
<glyph unicode="B" horiz-adv-x="1384" d="M150 0v1434h679q195 0 319 -101t124 -262q0 -122 -80.5 -211.5t-214.5 -122.5q149 -23 237.5 -117.5t88.5 -230.5q0 -172 -128.5 -280.5t-332.5 -108.5h-692zM393 221h461q90 0 144.5 57.5t54.5 145.5t-62 143.5t-160 55.5h-438v-402zM393 836h428q92 0 149.5 54.5 t57.5 141.5q0 80 -52.5 131t-135.5 51h-447v-378z" />
<glyph unicode="C" horiz-adv-x="1579" d="M84 721q0 217 86.5 384.5t251 263t383.5 95.5q280 0 462 -154t228 -429h-252q-34 169 -151 265.5t-287 96.5q-216 0 -342.5 -141t-126.5 -381q0 -246 126 -387t343 -141q173 0 288.5 95t149.5 265h252q-50 -280 -229.5 -432t-460.5 -152q-217 0 -381 94t-252 264.5 t-88 393.5z" />
<glyph unicode="D" horiz-adv-x="1472" d="M150 0v1434h516q211 0 375.5 -89.5t256 -251t91.5 -368.5q0 -211 -91.5 -376.5t-256 -257t-375.5 -91.5h-516zM395 221h287q200 0 326.5 140.5t126.5 363.5q0 212 -127 349.5t-326 137.5h-287v-991z" />
<glyph unicode="E" horiz-adv-x="1251" d="M150 0v1434h1003v-222h-760v-368h688v-215h-688v-408h778v-221h-1021z" />
<glyph unicode="F" horiz-adv-x="1234" d="M150 0v1434h1015v-222h-770v-395h715v-221h-715v-596h-245z" />
<glyph unicode="G" horiz-adv-x="1613" d="M84 721q0 217 86.5 385t250.5 263t382 95q279 0 461.5 -155.5t228.5 -427.5h-252q-34 169 -151 265.5t-287 96.5q-215 0 -341 -140.5t-126 -381.5q0 -243 125 -385.5t332 -142.5q166 0 267 97.5t101 252.5h-432v207h490q138 0 211 -68.5t73 -198.5v-483h-217v438h-4 q-22 -217 -157.5 -343t-356.5 -126q-199 0 -354.5 92t-242.5 263.5t-87 396.5z" />
<glyph unicode="H" horiz-adv-x="1574" d="M150 0v1434h245v-590h787v590h245v-1434h-245v623h-787v-623h-245z" />
<glyph unicode="I" horiz-adv-x="542" d="M150 0v1434h245v-1434h-245z" />
<glyph unicode="J" horiz-adv-x="1206" d="M74 391v203h243v-201q0 -89 71 -144.5t185 -55.5q110 0 180 61t70 158v1022h246v-1026q0 -194 -136.5 -316.5t-354.5 -122.5q-223 0 -363.5 118t-140.5 304z" />
<glyph unicode="K" horiz-adv-x="1425" d="M150 0v1434h245v-703l652 703h311l-561 -588l602 -846h-301l-471 668l-232 -242v-426h-245z" />
<glyph unicode="L" horiz-adv-x="1193" d="M150 0v1434h245v-1213h731v-221h-976z" />
<glyph unicode="M" horiz-adv-x="1800" d="M150 0v1434h303l448 -1139l447 1139h303v-1434h-246v1010l-397 -1010h-215l-398 1008v-1008h-245z" />
<glyph unicode="N" horiz-adv-x="1521" d="M150 0v1434h266l710 -1080v1080h246v-1434h-266l-711 1079v-1079h-245z" />
<glyph unicode="O" horiz-adv-x="1599" d="M84 721q0 162 50.5 299t142 235.5t226 153.5t296.5 55q321 0 520 -203.5t199 -539.5q0 -163 -50.5 -302t-142.5 -238.5t-227.5 -155.5t-298.5 -56q-158 0 -290.5 53.5t-226 150.5t-146 238t-52.5 310zM334 721q0 -243 125.5 -385.5t339.5 -142.5q215 0 342 142.5 t127 385.5q0 239 -127 380.5t-342 141.5q-214 0 -339.5 -141.5t-125.5 -380.5z" />
<glyph unicode="P" horiz-adv-x="1419" d="M150 0v1434h727q215 0 343 -127.5t128 -323.5q0 -213 -132 -339t-339 -126h-482v-518h-245zM395 739h469q110 0 172 70.5t62 173.5q0 102 -64.5 165.5t-169.5 63.5h-469v-473z" />
<glyph unicode="Q" horiz-adv-x="1599" d="M84 721q0 162 50.5 299t142 235.5t226 153.5t296.5 55q321 0 520 -203.5t199 -539.5q0 -205 -78 -368.5t-221 -260.5l165 -282l-180 -93l-170 287q-110 -35 -235 -35q-158 0 -290.5 53.5t-226 150.5t-146 238t-52.5 310zM334 721q0 -243 125.5 -385.5t339.5 -142.5 q61 0 114 12l-194 330l182 90l195 -330q84 68 128 177t44 249q0 239 -127 380.5t-342 141.5q-214 0 -339.5 -141.5t-125.5 -380.5z" />
<glyph unicode="R" horiz-adv-x="1423" d="M150 0v1434h700q204 0 332.5 -113t128.5 -293q0 -132 -86.5 -233t-229.5 -138q143 -27 197 -163l184 -494h-262l-166 453q-31 88 -133 88h-420v-541h-245zM395 758h443q109 0 169 67t60 166t-62.5 160t-166.5 61h-443v-454z" />
<glyph unicode="S" horiz-adv-x="1339" d="M88 442h252q17 -118 121 -186t274 -68q138 0 211.5 50.5t73.5 142.5q0 79 -55 122t-172 79l-234 69q-158 48 -230 88q-200 109 -200 318q0 180 139 293.5t373 113.5q259 0 415.5 -131t170.5 -358h-250q-8 124 -97 197t-247 73q-120 0 -190 -46.5t-70 -129.5 q0 -34 15 -61.5t29 -44t56.5 -36t60 -25.5t76.5 -25l27 -9l217 -67q53 -17 87.5 -28.5t83 -32.5t79.5 -41t65.5 -51.5t54.5 -66.5t33 -83.5t13 -104.5q0 -195 -144.5 -309.5t-390.5 -114.5q-282 0 -457.5 129.5t-189.5 343.5z" />
<glyph unicode="T" horiz-adv-x="1320" d="M59 1212v222h1203v-222h-478v-1212h-245v1212h-480z" />
<glyph unicode="U" horiz-adv-x="1468" d="M137 477v957h246v-951q0 -135 97.5 -211.5t252.5 -76.5q156 0 254 76.5t98 211.5v951h246v-957q0 -221 -161.5 -364.5t-434.5 -143.5q-272 0 -435 143t-163 365z" />
<glyph unicode="V" horiz-adv-x="1409" d="M27 1434h264l422 -1098l407 1098h262l-540 -1434h-258z" />
<glyph unicode="W" horiz-adv-x="1980" d="M27 1434h256l299 -1076l292 1076h230l295 -1078l299 1078h256l-406 -1434h-268l-291 1071l-289 -1071h-268z" />
<glyph unicode="X" horiz-adv-x="1464" d="M47 0l539 719l-525 715h297l377 -519l375 519h295l-522 -713l536 -721h-297l-387 526l-391 -526h-297z" />
<glyph unicode="Y" horiz-adv-x="1376" d="M20 1434h285l383 -588l383 588h285l-547 -822v-612h-246v612z" />
<glyph unicode="Z" horiz-adv-x="1245" d="M82 0v227l772 985h-735v222h1024v-228l-772 -985h792v-221h-1081z" />
<glyph unicode="[" horiz-adv-x="710" d="M176 -262v1827h500v-187h-289v-1454h289v-186h-500z" />
<glyph unicode="\" horiz-adv-x="763" d="M-4 1565l223 61l539 -1802l-217 -66z" />
<glyph unicode="]" horiz-adv-x="710" d="M35 -76h289v1454h-289v187h500v-1827h-500v186z" />
<glyph unicode="^" horiz-adv-x="991" d="M68 885l319 549h215l322 -549h-256l-172 305l-172 -305h-256z" />
<glyph unicode="_" horiz-adv-x="1107" d="M76 -31h956v-198h-956v198z" />
<glyph unicode="`" horiz-adv-x="741" d="M16 1653l131 145l578 -469l-133 -147z" />
<glyph unicode="a" horiz-adv-x="1206" d="M85.5 398q15.5 44 40 75.5t62.5 57t75.5 41.5t87.5 28.5t91 19.5t93 13q12 1 35 4q150 16 195 35q54 24 56 71q-2 81 -61 129t-162 48q-107 0 -178 -53t-82 -138h-244q17 172 157.5 280.5t350.5 108.5q215 0 335 -107t120 -284v-491q0 -48 53 -48h59v-188h-114 q-169 0 -197 127q-7 16 -10 37q-101 -187 -367 -187q-189 1 -301 87q-111 86 -110 234q0 56 15.5 100zM313 317q0 -71 56 -110t161 -39q126 0 208.5 66.5t82.5 173.5v151q-28 -42 -89.5 -60.5t-170.5 -31.5q-49 -6 -78.5 -11t-66 -15.5t-56 -25.5t-33.5 -40t-14 -58z" />
<glyph unicode="b" horiz-adv-x="1284" d="M127 0v1536h242v-592q60 81 153.5 127.5t206.5 46.5q216 0 353 -158.5t137 -410.5q0 -256 -137.5 -418t-354.5 -162q-128 0 -230 60t-153 164l-22 -193h-195zM369 555q0 -167 85.5 -274t219.5 -107q132 0 214.5 104.5t82.5 270.5q0 161 -82.5 262.5t-214.5 101.5 q-134 0 -219.5 -100t-85.5 -258z" />
<glyph unicode="c" horiz-adv-x="1204" d="M66 551q0 174 73.5 304t198.5 196.5t283 66.5q221 0 362 -124t156 -328h-238q-17 113 -92.5 179t-190.5 66q-139 0 -223 -97.5t-84 -262.5q0 -174 88.5 -274.5t227.5 -100.5q110 0 182.5 66.5t91.5 183.5h238q-22 -211 -159 -334t-353 -123q-173 0 -301.5 77.5 t-194 208.5t-65.5 296z" />
<glyph unicode="d" horiz-adv-x="1286" d="M66 549q0 251 139 410t356 159q114 0 206.5 -44t150.5 -122v584h241v-1536h-194l-23 193q-46 -104 -144.5 -164t-228.5 -60q-220 0 -361.5 162t-141.5 418zM313 547q0 -165 84 -269t217 -104q134 0 219 105.5t85 271.5q0 161 -84 262.5t-216 101.5q-135 0 -220 -102.5 t-85 -265.5z" />
<glyph unicode="e" horiz-adv-x="1187" d="M66 539q0 131 41.5 241t114 183.5t171 114t211.5 40.5q232 0 373 -152.5t145 -414.5v-57h-815q12 -144 98 -232t222 -88q94 0 161 44.5t95 125.5h235q-41 -176 -171.5 -275.5t-321.5 -99.5q-248 0 -403.5 160t-155.5 410zM317 664h555q-23 118 -93 183.5t-175 65.5 q-107 0 -183 -66t-104 -183z" />
<glyph unicode="f" horiz-adv-x="835" d="M53 881v204h191v136q0 154 88.5 234.5t257.5 80.5h235v-205h-219q-59 0 -90 -33t-31 -94v-119h316v-204h-316v-881h-241v881h-191z" />
<glyph unicode="g" horiz-adv-x="1271" d="M66 565q0 244 140 398.5t357 154.5q126 0 224.5 -54t150.5 -146l20 167h193v-1052q0 -217 -143.5 -346t-389.5 -129q-229 0 -370.5 104t-141.5 277h242q0 -78 75.5 -131.5t194.5 -53.5q141 0 217 76t76 203v153q-54 -80 -143 -125t-203 -45q-219 0 -359 153.5t-140 395.5 zM315 565q0 -154 82.5 -250t214.5 -96t215.5 97t83.5 251t-83.5 250t-215.5 96t-214.5 -96.5t-82.5 -251.5z" />
<glyph unicode="h" horiz-adv-x="1200" d="M127 0v1536h242v-567q57 69 146.5 109t193.5 40q174 0 278.5 -108.5t104.5 -290.5v-719h-242v707q0 91 -56.5 145.5t-152.5 54.5q-121 0 -195.5 -71t-76.5 -179v-657h-242z" />
<glyph unicode="i" horiz-adv-x="487" d="M88 1389q0 66 45 110.5t111 44.5q67 0 111 -44.5t44 -110.5q0 -67 -44 -112.5t-111 -45.5q-66 0 -111 46t-45 112zM123 0v1085h242v-1085h-242z" />
<glyph unicode="j" horiz-adv-x="487" d="M-170 -205h156q137 0 137 144v1146h242v-1165q0 -161 -93 -245.5t-270 -84.5h-172v205zM88 1389q0 66 45 110.5t111 44.5q67 0 111 -44.5t44 -110.5q0 -68 -44 -113t-111 -45q-66 0 -111 45.5t-45 112.5z" />
<glyph unicode="k" horiz-adv-x="1171" d="M127 0v1536h242v-922l462 471h295l-393 -391l447 -694h-281l-334 526l-196 -196v-330h-242z" />
<glyph unicode="l" horiz-adv-x="495" d="M127 0v1536h242v-1536h-242z" />
<glyph unicode="m" horiz-adv-x="1884" d="M123 0v1085h194l19 -151q53 83 148.5 133.5t213.5 50.5q115 0 202 -54t130 -149q47 89 147.5 146t225.5 57q169 0 271 -109.5t102 -285.5v-723h-244v711q0 91 -51.5 144.5t-139.5 53.5q-122 0 -196 -71t-76 -181v-657h-242v711q0 91 -51 144.5t-139 53.5q-122 0 -196 -71 t-76 -181v-657h-242z" />
<glyph unicode="n" horiz-adv-x="1196" d="M123 0v1085h194l21 -159q52 87 150 139.5t217 52.5q174 0 278 -108t104 -291v-719h-241v707q0 92 -57.5 146t-157.5 54q-117 0 -190.5 -71.5t-75.5 -178.5v-657h-242z" />
<glyph unicode="o" d="M66 553q0 173 73.5 302.5t199 196t284.5 66.5q128 0 233.5 -43.5t175.5 -119.5t108 -179t38 -223q0 -135 -41 -245.5t-115 -184.5t-176 -114t-223 -40q-258 0 -407.5 163t-149.5 421zM311 553q0 -174 87.5 -275.5t224.5 -101.5q143 0 226 105t83 272q0 162 -84 260 t-225 98t-226.5 -98.5t-85.5 -259.5z" />
<glyph unicode="p" horiz-adv-x="1284" d="M125 -410v1495h194l25 -178q55 97 156.5 154t228.5 57q216 0 353 -158.5t137 -410.5q0 -256 -137.5 -418t-354.5 -162q-115 0 -208.5 48.5t-149.5 134.5v-562h-244zM369 555q0 -168 85 -274.5t220 -106.5q132 0 214.5 104.5t82.5 270.5q0 162 -83 263t-216 101 q-134 0 -218.5 -100t-84.5 -258z" />
<glyph unicode="q" horiz-adv-x="1284" d="M66 549q0 251 139 410t356 159q128 0 228.5 -55t152.5 -150l23 172h194v-1495h-241v557q-53 -84 -143.5 -131t-205.5 -47q-220 0 -361.5 162t-141.5 418zM313 547q0 -165 84 -269t217 -104q134 0 219 105.5t85 271.5q0 161 -84 262.5t-216 101.5q-135 0 -220 -102.5 t-85 -265.5z" />
<glyph unicode="r" horiz-adv-x="800" d="M123 0v1085h194l29 -213q108 226 377 226h41v-236h-41q-169 0 -263.5 -85.5t-94.5 -239.5v-537h-242z" />
<glyph unicode="s" horiz-adv-x="1024" d="M68 346h233q6 -85 72.5 -131.5t169.5 -46.5q92 0 140 34t48 97q0 37 -22 62t-43.5 34.5t-78.5 27.5q-6 3 -10.5 4t-9.5 3l-143 47q-45 15 -75.5 26t-69 28.5t-63.5 34t-51.5 41t-42 51.5t-25 63t-9.5 78q0 147 107.5 233t300.5 86q191 0 310.5 -98.5t141.5 -280.5h-229 q-9 90 -68.5 135.5t-156.5 45.5q-79 0 -123.5 -31.5t-44.5 -87.5q0 -15 5 -28.5t10.5 -23.5t19 -20t22 -15.5t27.5 -13.5t27.5 -11.5t31.5 -11t29 -9.5l131 -43q91 -30 146.5 -55.5t104.5 -63.5t71 -90t22 -123q0 -152 -110 -238t-308 -86q-222 0 -349 99t-138 278z" />
<glyph unicode="t" horiz-adv-x="819" d="M53 881v204h191v371h241v-371h281v-204h-281v-533q0 -69 35.5 -106t102.5 -37h122v-205h-139q-177 0 -269.5 85t-92.5 247v549h-191z" />
<glyph unicode="u" horiz-adv-x="1191" d="M104 367v718h242v-708q0 -91 58.5 -143t156.5 -52q121 0 192.5 70t73.5 178v655h242v-1085h-195l-18 158q-47 -88 -138.5 -138.5t-205.5 -50.5q-191 0 -299.5 109t-108.5 289z" />
<glyph unicode="v" horiz-adv-x="1210" d="M27 1085h262l317 -800l316 800h262l-453 -1085h-252z" />
<glyph unicode="w" horiz-adv-x="1615" d="M27 1085h247l220 -786l215 786h200l217 -778l215 778h248l-321 -1085h-250l-209 741l-207 -741h-254z" />
<glyph unicode="x" horiz-adv-x="1124" d="M35 0l391 543l-385 542h270l252 -362l250 362h270l-385 -542l392 -543h-273l-254 375l-256 -375h-272z" />
<glyph unicode="y" horiz-adv-x="1181" d="M27 1085h260l311 -823l305 823h252l-473 -1271q-42 -112 -134.5 -168t-248.5 -56h-197v205h197q128 0 160 90l43 115h-45z" />
<glyph unicode="z" horiz-adv-x="1021" d="M82 0v221l582 651h-564v213h834v-221l-584 -649h592v-215h-860z" />
<glyph unicode="{" horiz-adv-x="735" d="M59 565v170q82 0 127 34t45 97v387q0 151 84.5 231.5t245.5 80.5h139v-187h-131q-62 0 -94.5 -33.5t-32.5 -97.5v-399q0 -157 -153 -201q72 -21 112.5 -73t40.5 -130v-397q0 -60 32.5 -91.5t92.5 -31.5h133v-186h-157q-143 0 -227.5 78t-84.5 211v405q0 63 -44.5 98 t-127.5 35z" />
<glyph unicode="|" horiz-adv-x="569" d="M162 -236v1772h246v-1772h-246z" />
<glyph unicode="}" horiz-adv-x="735" d="M35 -76h133q60 0 92.5 31.5t32.5 91.5v397q0 78 40.5 130t112.5 73q-153 45 -153 201v399q0 64 -32.5 97.5t-92.5 33.5h-133v187h139q161 0 246.5 -80.5t85.5 -231.5v-387q0 -63 45 -97t127 -34v-170q-83 0 -127.5 -35t-44.5 -98v-405q0 -133 -84.5 -211t-226.5 -78h-160 v186z" />
<glyph unicode="~" horiz-adv-x="1234" d="M76 412q0 196 74.5 297.5t216.5 101.5q51 0 106.5 -21.5t102.5 -52.5t91.5 -61.5t88 -52t78.5 -21.5q98 0 98 170h229q0 -192 -69.5 -290.5t-206.5 -98.5q-69 0 -144.5 32.5t-128.5 71t-109.5 71t-92.5 32.5q-111 0 -111 -178h-223z" />
<glyph unicode="&#xa1;" horiz-adv-x="540" d="M113 963q0 66 45 110.5t112 44.5t112.5 -44.5t45.5 -110.5q0 -67 -45 -112.5t-113 -45.5q-67 0 -112 45t-45 113zM150 -444v1126h243v-1126h-243z" />
<glyph unicode="&#xa2;" horiz-adv-x="1204" d="M66 723q0 232 125.5 380.5t328.5 178.5v238h166v-234q195 -19 317.5 -139t135.5 -309h-238q-13 95 -70 157.5t-145 79.5v-719q87 15 143.5 78t71.5 164h238q-20 -196 -140.5 -316t-312.5 -137v-249h-166v256q-213 33 -333.5 189t-120.5 382zM311 723q0 -137 57 -229 t152 -125v698q-98 -31 -153.5 -121.5t-55.5 -222.5z" />
<glyph unicode="&#xa3;" horiz-adv-x="1357" d="M90 0v223q150 0 222.5 49.5t72.5 139.5q0 75 -59 184h-236v184h135q-53 116 -53 228q0 201 143 328.5t367 127.5q212 0 352.5 -124t169.5 -351h-258q-20 121 -90 186.5t-174 65.5q-109 0 -178.5 -66.5t-69.5 -173.5q0 -89 64 -221h395v-184h-299q45 -92 45 -162 q0 -76 -48.5 -132.5t-129.5 -78.5h397q78 0 120 41t42 117v194h240v-194q0 -186 -103.5 -283.5t-298.5 -97.5h-768z" />
<glyph unicode="&#xa4;" horiz-adv-x="1167" d="M74 205l162 162q-89 109 -89 268q0 147 80 254l-153 155l104 99l156 -156q113 66 250 66q146 0 250 -66l157 156l105 -96l-156 -154q84 -111 84 -260q0 -157 -90 -268l160 -162l-105 -97l-166 166q-106 -61 -239 -61q-134 0 -240 61l-166 -166zM367 633q0 -97 60 -158 t157 -61q98 0 159.5 61t61.5 158q0 98 -61.5 158.5t-159.5 60.5q-97 0 -157 -61t-60 -158z" />
<glyph unicode="&#xa5;" horiz-adv-x="1376" d="M20 1434h285l383 -588l383 588h285l-547 -822h416v-145h-416v-119h416v-147h-416v-201h-246v201h-411v147h411v119h-411v145h411z" />
<glyph unicode="&#xa6;" horiz-adv-x="569" d="M162 -236v779h246v-779h-246zM162 758v778h246v-778h-246z" />
<glyph unicode="&#xa7;" horiz-adv-x="1216" d="M154 152h233q8 -70 71.5 -112t164.5 -42q93 0 143.5 34t50.5 97q0 28 -9.5 48t-31.5 34t-43.5 22.5t-58.5 20.5q-13 4 -19 6l-161 53q-79 25 -130.5 47t-103 57t-77 84t-25.5 113q0 89 53 157t143 108q-92 42 -141 104t-49 162q0 145 113 232t303 87q188 0 305 -95.5 t139 -268.5h-229q-9 80 -68 123t-154 43q-80 0 -126 -32t-46 -87q0 -15 5 -28.5t10.5 -23.5t19 -20t22 -15.5t27.5 -13.5t27.5 -11.5t31.5 -11t29 -9.5l132 -43q71 -24 119 -43.5t94 -47t72.5 -58.5t42.5 -73.5t16 -95.5q0 -83 -55 -148.5t-148 -98.5q109 -45 161 -109.5 t52 -173.5q0 -151 -117.5 -237.5t-327.5 -86.5q-200 0 -325 96t-135 257zM381 672q0 -22 5.5 -40.5t12 -32t21 -26t24.5 -20t30.5 -16t30 -12t32.5 -11.5t30 -10l152 -51q49 25 77.5 67t28.5 92q0 68 -42.5 100.5t-139.5 63.5l-149 49q-113 -55 -113 -153z" />
<glyph unicode="&#xa8;" horiz-adv-x="839" d="M55 1362q0 62 43.5 104.5t106.5 42.5q61 0 104 -42.5t43 -104.5q0 -63 -42.5 -106.5t-104.5 -43.5q-63 0 -106.5 43.5t-43.5 106.5zM487 1362q0 61 44 104t106 43q61 0 104 -42.5t43 -104.5q0 -63 -42.5 -106.5t-104.5 -43.5t-106 43.5t-44 106.5z" />
<glyph unicode="&#xa9;" horiz-adv-x="1802" d="M88 711q0 231 102.5 416.5t289 292t421.5 106.5q231 0 416.5 -102.5t292 -289.5t106.5 -423q0 -230 -102.5 -415.5t-289.5 -292.5t-423 -107q-230 0 -415 103t-291.5 290t-106.5 422zM260 711q0 -185 81 -334.5t228 -235.5t332 -86q181 0 327 82.5t230 233t84 340.5 q0 186 -80.5 335.5t-227.5 234.5t-333 85q-181 0 -327 -82.5t-230 -232.5t-84 -340zM530 715q0 173 106 283t275 110q151 0 249.5 -84.5t113.5 -226.5h-166q-9 74 -63.5 119t-133.5 45q-92 0 -151.5 -69t-59.5 -177q0 -112 61.5 -182t158.5 -70q77 0 128 45t60 121h166 q-17 -141 -115 -226.5t-241 -85.5q-172 0 -280 110.5t-108 287.5z" />
<glyph unicode="&#xaa;" horiz-adv-x="940" d="M74 866q0 53 21.5 94t52.5 65t80 40.5t88 23.5t92 13q128 15 150 20q59 17 60 58q0 54 -40 87t-109 33q-84 0 -136 -34.5t-63 -94.5h-180q12 128 117 206.5t268 78.5q151 0 236.5 -76.5t85.5 -208.5v-342q0 -36 39 -36h43v-154h-68q-65 0 -107.5 26t-54.5 72q-5 9 -8 23 q-79 -135 -268 -135q-135 0 -217 65t-82 176zM258 866q0 -45 40 -70.5t108 -25.5q92 0 152 49.5t60 124.5v88q-12 -22 -42 -36t-53 -18.5t-76 -10.5q-10 -1 -15 -2q-89 -9 -131.5 -29t-42.5 -70z" />
<glyph unicode="&#xab;" horiz-adv-x="1171" d="M76 471v201l432 432l143 -133l-397 -400l405 -403l-147 -133zM530 471v201l433 432l145 -133l-397 -400l405 -403l-149 -133z" />
<glyph unicode="&#xac;" horiz-adv-x="1183" d="M76 492v200h1005v-657h-221v457h-784z" />
<glyph unicode="&#xad;" horiz-adv-x="1067" d="M76 528v199h915v-199h-915z" />
<glyph unicode="&#xae;" d="M66 975q0 239 156.5 397t400.5 158q157 0 283.5 -69.5t199 -197t72.5 -288.5q0 -156 -69.5 -282.5t-197 -199.5t-288.5 -73q-157 0 -284 69.5t-200 197t-73 288.5zM213 975q0 -180 115 -300t295 -120q176 0 291.5 117.5t115.5 302.5q0 182 -113.5 300t-293.5 118 q-177 0 -293.5 -117t-116.5 -301zM406 723v506h276q79 0 129.5 -43t50.5 -109q0 -49 -28 -85.5t-76 -51.5q53 -13 67 -61l52 -156h-129l-37 127q-9 35 -49 35h-132v-162h-124zM530 987h156q28 0 43.5 19.5t15.5 46.5t-15.5 46t-43.5 19h-156v-131z" />
<glyph unicode="&#xaf;" horiz-adv-x="856" d="M29 1270v190h798v-190h-798z" />
<glyph unicode="&#xb0;" horiz-adv-x="765" d="M63 1114q0 129 87.5 219t232.5 90t232 -90t87 -219q0 -131 -87 -222t-232 -91t-232.5 91t-87.5 222zM238 1112q0 -63 40.5 -107t104.5 -44t104.5 44t40.5 107t-40.5 107.5t-104.5 44.5t-104.5 -44.5t-40.5 -107.5z" />
<glyph unicode="&#xb1;" horiz-adv-x="1251" d="M88 39v201h1077v-201h-1077zM88 623v200h428v299h221v-299h428v-200h-428v-299h-221v299h-428z" />
<glyph unicode="&#xb2;" horiz-adv-x="765" d="M82 1370q15 133 102 210t224 77q121 0 196.5 -66.5t75.5 -171.5q0 -65 -36.5 -121t-88.5 -94.5t-104 -72t-88.5 -67t-36.5 -65.5h360v-155h-580v74q0 59 21.5 108.5t56.5 84.5t77 65t84 55.5t77 50.5t56.5 55.5t21.5 65.5q0 42 -28 69t-75 27q-59 0 -93.5 -35.5 t-39.5 -93.5h-182z" />
<glyph unicode="&#xb3;" horiz-adv-x="780" d="M61 1108h181q6 -60 50 -94.5t114 -34.5q59 0 94 28t35 78q0 44 -36.5 70.5t-99.5 26.5h-129v137h127q52 0 81.5 26t29.5 66q0 38 -27.5 66t-83.5 28q-54 0 -91.5 -32t-43.5 -84h-182q19 133 108 200.5t215 67.5q123 0 200 -60t77 -157q0 -64 -39 -110t-109 -68 q86 -20 132.5 -73t46.5 -128q0 -106 -86 -172t-224 -66q-148 0 -240.5 75t-99.5 210z" />
<glyph unicode="&#xb4;" horiz-adv-x="741" d="M16 1329l576 469l133 -145l-578 -471z" />
<glyph unicode="&#xb6;" horiz-adv-x="1310" d="M72 983q0 89 31 169t89.5 143t150.5 100.5t206 38.5h600v-1645h-221v1448h-146v-1448h-221v729h-12q-217 4 -347 134t-130 331z" />
<glyph unicode="&#xb7;" horiz-adv-x="501" d="M94 649q0 67 45 112.5t111 45.5q68 0 113 -45.5t45 -112.5q0 -66 -45.5 -110.5t-112.5 -44.5q-66 0 -111 44.5t-45 110.5z" />
<glyph unicode="&#xb8;" horiz-adv-x="399" d="M25 -426l159 459l191 -33l-162 -463z" />
<glyph unicode="&#xb9;" horiz-adv-x="573" d="M47 1325v184h29q168 0 168 117v12h180v-794h-180v561q-41 -80 -168 -80h-29z" />
<glyph unicode="&#xba;" horiz-adv-x="933" d="M66 1044q0 189 113 300.5t288 111.5q184 0 292.5 -117t108.5 -295q0 -196 -111.5 -309.5t-289.5 -113.5q-187 0 -294 118t-107 305zM248 1044q0 -123 61.5 -194.5t157.5 -71.5q101 0 160 74t59 192q0 116 -59.5 185t-159.5 69t-159.5 -69t-59.5 -185z" />
<glyph unicode="&#xbb;" horiz-adv-x="1171" d="M57 168l406 403l-397 400l143 133l432 -432v-201l-436 -436zM512 168l406 403l-398 400l146 133l432 -432v-201l-436 -436z" />
<glyph unicode="&#xbc;" horiz-adv-x="1619" d="M47 1122v185h29q168 0 168 114v13h180v-795h-180v563q-39 -80 -168 -80h-29zM168 14l1042 1506l176 -88l-1042 -1508zM899 152v165l379 478h176v-494h127v-149h-127v-152h-178v152h-377zM1049 301h227v285z" />
<glyph unicode="&#xbd;" horiz-adv-x="1722" d="M47 1122v185h29q168 0 168 114v13h180v-795h-180v563q-39 -80 -168 -80h-29zM168 14l1042 1506l176 -88l-1042 -1508zM1038 526q13 133 101 211t225 78q121 0 195.5 -66t74.5 -171q0 -55 -26 -104.5t-65.5 -83.5t-85.5 -67t-85.5 -57.5t-65.5 -53t-26 -54.5h360v-158 h-579v74q0 68 29.5 125t73 92.5t95 70.5t95 61t73 62t29.5 76q0 41 -28 68.5t-74 27.5q-59 0 -94 -36.5t-41 -94.5h-181z" />
<glyph unicode="&#xbe;" horiz-adv-x="1835" d="M51 903h180q6 -60 50 -94.5t114 -34.5q59 0 94 28.5t35 78.5q0 45 -36 71.5t-99 26.5h-129v135h127q52 0 81.5 26.5t29.5 67.5q0 38 -27.5 65t-83.5 27q-55 0 -92 -31t-43 -83h-182q19 133 108 200.5t215 67.5q123 0 200 -61t77 -158q0 -63 -39.5 -109.5t-108.5 -68.5 q86 -18 132 -71t46 -128q0 -106 -85.5 -171.5t-223.5 -65.5q-148 0 -240.5 73.5t-99.5 208.5zM383 14l1042 1506l177 -88l-1043 -1508zM1114 152v165l379 478h176v-494h127v-149h-127v-152h-178v152h-377zM1264 301h227v285z" />
<glyph unicode="&#xbf;" horiz-adv-x="1167" d="M86 37q0 69 21.5 126t56 97t76 75t83.5 65.5t76.5 62t56 73t21.5 89.5v80h240v-80q0 -67 -21 -124t-55 -96.5t-75.5 -74t-82.5 -65t-75 -62t-55 -71.5t-21 -87q0 -86 63.5 -141.5t169.5 -55.5q119 0 196.5 75.5t78.5 209.5h258q-17 -238 -163.5 -372t-371.5 -134 q-215 0 -346 117t-131 293zM438 963q0 66 45.5 110.5t112.5 44.5t112.5 -44.5t45.5 -110.5q0 -67 -45 -112.5t-113 -45.5t-113 45.5t-45 112.5z" />
<glyph unicode="&#xc0;" horiz-adv-x="1492" d="M37 0l586 1434h245l588 -1434h-254l-145 354h-621l-145 -354h-254zM219 1966l131 145l563 -462l-133 -146zM524 571h445l-221 545z" />
<glyph unicode="&#xc1;" horiz-adv-x="1492" d="M37 0l586 1434h245l588 -1434h-254l-145 354h-621l-145 -354h-254zM524 571h445l-221 545zM582 1649l561 462l133 -145l-563 -463z" />
<glyph unicode="&#xc2;" horiz-adv-x="1492" d="M37 0l586 1434h245l588 -1434h-254l-145 354h-621l-145 -354h-254zM297 1649l371 336h159l367 -332l-143 -140l-306 285l-305 -285zM524 571h445l-221 545z" />
<glyph unicode="&#xc3;" horiz-adv-x="1492" d="M37 0l586 1434h245l588 -1434h-254l-145 354h-621l-145 -354h-254zM354 1593q0 143 59.5 229.5t157.5 86.5q47 0 96.5 -23t83.5 -51t71.5 -51t62.5 -23q65 0 65 131h189q0 -152 -50.5 -231.5t-144.5 -79.5q-48 0 -99.5 22.5t-86.5 50t-72 50t-61 22.5q-35 0 -56.5 -37 t-21.5 -96h-193zM524 571h445l-221 545z" />
<glyph unicode="&#xc4;" horiz-adv-x="1492" d="M37 0l586 1434h245l588 -1434h-254l-145 354h-621l-145 -354h-254zM381 1692q0 62 43 104.5t106 42.5q62 0 105 -43t43 -104q0 -62 -43.5 -106t-104.5 -44q-63 0 -106 44t-43 106zM524 571h445l-221 545zM813 1692q0 61 44 104t106 43q61 0 104 -42.5t43 -104.5t-43 -106 t-104 -44t-105.5 44t-44.5 106z" />
<glyph unicode="&#xc5;" horiz-adv-x="1492" d="M37 0l586 1434h245l588 -1434h-254l-145 354h-621l-145 -354h-254zM510 1735q0 97 68 161t170 64q101 0 169 -64t68 -161q0 -96 -68 -161t-169 -65t-169.5 65.5t-68.5 160.5zM524 571h445l-221 545zM647 1735q0 -42 27.5 -71.5t73.5 -29.5q45 0 72.5 29.5t27.5 71.5 q0 43 -27 71.5t-73 28.5t-73.5 -28.5t-27.5 -71.5z" />
<glyph unicode="&#xc6;" horiz-adv-x="1994" d="M37 0l541 1434h1318v-222h-759v-368h690v-215h-690v-408h778v-221h-1022v360h-471l-135 -360h-250zM504 578h389v632h-150z" />
<glyph unicode="&#xc7;" horiz-adv-x="1579" d="M84 721q0 217 86.5 384.5t251 263t383.5 95.5q280 0 462 -154t228 -429h-252q-34 169 -151 265.5t-287 96.5q-216 0 -342.5 -141t-126.5 -381q0 -246 126 -387t343 -141q173 0 288.5 95t149.5 265h252q-44 -256 -199 -405.5t-399 -174.5l-154 -436l-188 37l139 401 q-282 35 -446 236.5t-164 509.5z" />
<glyph unicode="&#xc8;" horiz-adv-x="1251" d="M133 1966l131 145l563 -462l-133 -146zM150 0v1434h1003v-222h-760v-368h688v-215h-688v-408h778v-221h-1021z" />
<glyph unicode="&#xc9;" horiz-adv-x="1251" d="M150 0v1434h1003v-222h-760v-368h688v-215h-688v-408h778v-221h-1021zM496 1649l561 462l133 -145l-563 -463z" />
<glyph unicode="&#xca;" horiz-adv-x="1251" d="M150 0v1434h1003v-222h-760v-368h688v-215h-688v-408h778v-221h-1021zM211 1649l371 336h159l367 -332l-143 -140l-306 285l-305 -285z" />
<glyph unicode="&#xcb;" horiz-adv-x="1251" d="M150 0v1434h1003v-222h-760v-368h688v-215h-688v-408h778v-221h-1021zM297 1692q0 62 43 104.5t106 42.5q62 0 105 -43t43 -104q0 -62 -43.5 -106t-104.5 -44q-63 0 -106 44t-43 106zM729 1692q0 61 44 104t106 43q61 0 104 -42.5t43 -104.5t-43 -106t-104 -44t-105.5 44 t-44.5 106z" />
<glyph unicode="&#xcc;" horiz-adv-x="542" d="M-256 1966l131 145l563 -462l-133 -146zM150 0v1434h245v-1434h-245z" />
<glyph unicode="&#xcd;" horiz-adv-x="542" d="M106 1649l562 462l133 -145l-563 -463zM150 0v1434h245v-1434h-245z" />
<glyph unicode="&#xce;" horiz-adv-x="542" d="M-178 1649l371 336h159l367 -332l-144 -140l-305 285l-305 -285zM150 0v1434h245v-1434h-245z" />
<glyph unicode="&#xcf;" horiz-adv-x="542" d="M-96 1692q0 61 44 104t107 43q62 0 105 -43t43 -104q0 -62 -43.5 -106t-104.5 -44q-63 0 -107 44t-44 106zM150 0v1434h245v-1434h-245zM338 1692q0 61 43.5 104t105.5 43t105 -43t43 -104q0 -62 -43.5 -106t-104.5 -44t-105 44t-44 106z" />
<glyph unicode="&#xd0;" horiz-adv-x="1517" d="M-12 643v176h207v615h518q211 0 375.5 -89.5t256 -251t91.5 -368.5q0 -211 -91.5 -376.5t-256 -257t-375.5 -91.5h-518v643h-207zM440 221h289q198 0 324.5 141t126.5 363q0 211 -127 349t-324 138h-289v-393h445v-176h-445v-422z" />
<glyph unicode="&#xd1;" horiz-adv-x="1521" d="M150 0v1434h266l710 -1080v1080h246v-1434h-266l-711 1079v-1079h-245zM369 1593q0 143 59.5 229.5t157.5 86.5q47 0 96.5 -23t83 -51t71 -51t62.5 -23q66 0 66 131h188q0 -152 -50.5 -231.5t-144.5 -79.5q-48 0 -99.5 22.5t-86.5 50t-72 50t-61 22.5q-35 0 -56.5 -37 t-21.5 -96h-192z" />
<glyph unicode="&#xd2;" horiz-adv-x="1599" d="M84 721q0 162 50.5 299t142 235.5t226 153.5t296.5 55q321 0 520 -203.5t199 -539.5q0 -163 -50.5 -302t-142.5 -238.5t-227.5 -155.5t-298.5 -56q-158 0 -290.5 53.5t-226 150.5t-146 238t-52.5 310zM270 1966l131 145l564 -462l-134 -146zM334 721q0 -243 125.5 -385.5 t339.5 -142.5q215 0 342 142.5t127 385.5q0 239 -127 380.5t-342 141.5q-214 0 -339.5 -141.5t-125.5 -380.5z" />
<glyph unicode="&#xd3;" horiz-adv-x="1599" d="M84 721q0 162 50.5 299t142 235.5t226 153.5t296.5 55q321 0 520 -203.5t199 -539.5q0 -163 -50.5 -302t-142.5 -238.5t-227.5 -155.5t-298.5 -56q-158 0 -290.5 53.5t-226 150.5t-146 238t-52.5 310zM334 721q0 -243 125.5 -385.5t339.5 -142.5q215 0 342 142.5 t127 385.5q0 239 -127 380.5t-342 141.5q-214 0 -339.5 -141.5t-125.5 -380.5zM633 1649l561 462l133 -145l-563 -463z" />
<glyph unicode="&#xd4;" horiz-adv-x="1599" d="M84 721q0 162 50.5 299t142 235.5t226 153.5t296.5 55q321 0 520 -203.5t199 -539.5q0 -163 -50.5 -302t-142.5 -238.5t-227.5 -155.5t-298.5 -56q-158 0 -290.5 53.5t-226 150.5t-146 238t-52.5 310zM334 721q0 -243 125.5 -385.5t339.5 -142.5q215 0 342 142.5 t127 385.5q0 239 -127 380.5t-342 141.5q-214 0 -339.5 -141.5t-125.5 -380.5zM348 1649l371 336h160l366 -332l-143 -140l-305 285l-305 -285z" />
<glyph unicode="&#xd5;" horiz-adv-x="1599" d="M84 721q0 162 50.5 299t142 235.5t226 153.5t296.5 55q321 0 520 -203.5t199 -539.5q0 -163 -50.5 -302t-142.5 -238.5t-227.5 -155.5t-298.5 -56q-158 0 -290.5 53.5t-226 150.5t-146 238t-52.5 310zM334 721q0 -243 125.5 -385.5t339.5 -142.5q215 0 342 142.5 t127 385.5q0 239 -127 380.5t-342 141.5q-214 0 -339.5 -141.5t-125.5 -380.5zM406 1593q0 143 59.5 229.5t157.5 86.5q47 0 96.5 -23t83 -51t71 -51t62.5 -23q65 0 65 131h189q0 -152 -50.5 -231.5t-144.5 -79.5q-48 0 -99.5 22.5t-86.5 50t-72 50t-61 22.5 q-35 0 -56.5 -37t-21.5 -96h-192z" />
<glyph unicode="&#xd6;" horiz-adv-x="1599" d="M84 721q0 162 50.5 299t142 235.5t226 153.5t296.5 55q321 0 520 -203.5t199 -539.5q0 -163 -50.5 -302t-142.5 -238.5t-227.5 -155.5t-298.5 -56q-158 0 -290.5 53.5t-226 150.5t-146 238t-52.5 310zM334 721q0 -243 125.5 -385.5t339.5 -142.5q215 0 342 142.5 t127 385.5q0 239 -127 380.5t-342 141.5q-214 0 -339.5 -141.5t-125.5 -380.5zM434 1692q0 62 43.5 104.5t106.5 42.5q62 0 104.5 -42.5t42.5 -104.5t-43 -106t-104 -44q-63 0 -106.5 44t-43.5 106zM866 1692q0 61 44 104t106 43t104.5 -42.5t42.5 -104.5t-43 -106t-104 -44 q-62 0 -106 44t-44 106z" />
<glyph unicode="&#xd7;" horiz-adv-x="1058" d="M66 287l321 321l-321 320l145 143l319 -319l320 319l145 -143l-319 -320l319 -321l-145 -144l-320 320l-319 -320z" />
<glyph unicode="&#xd8;" horiz-adv-x="1599" d="M84 721q0 162 50.5 299t142 235.5t226 153.5t296.5 55q235 0 409 -114l176 223l111 -84l-178 -225q97 -100 149 -238.5t52 -304.5q0 -163 -50.5 -302t-142.5 -238.5t-227.5 -155.5t-298.5 -56q-234 0 -410 115l-172 -217l-111 84l177 223q-96 99 -147.5 238.5 t-51.5 308.5zM334 721q0 -218 100 -354l631 800q-112 76 -266 76q-214 0 -339.5 -141.5t-125.5 -380.5zM535 268q110 -75 264 -75q215 0 342 142.5t127 385.5q0 213 -103 350z" />
<glyph unicode="&#xd9;" horiz-adv-x="1468" d="M137 477v957h246v-951q0 -135 97.5 -211.5t252.5 -76.5q156 0 254 76.5t98 211.5v951h246v-957q0 -221 -161.5 -364.5t-434.5 -143.5q-272 0 -435 143t-163 365zM207 1966l131 145l563 -462l-133 -146z" />
<glyph unicode="&#xda;" horiz-adv-x="1468" d="M137 477v957h246v-951q0 -135 97.5 -211.5t252.5 -76.5q156 0 254 76.5t98 211.5v951h246v-957q0 -221 -161.5 -364.5t-434.5 -143.5q-272 0 -435 143t-163 365zM569 1649l561 462l134 -145l-564 -463z" />
<glyph unicode="&#xdb;" horiz-adv-x="1468" d="M137 477v957h246v-951q0 -135 97.5 -211.5t252.5 -76.5q156 0 254 76.5t98 211.5v951h246v-957q0 -221 -161.5 -364.5t-434.5 -143.5q-272 0 -435 143t-163 365zM285 1649l370 336h160l367 -332l-144 -140l-305 285l-305 -285z" />
<glyph unicode="&#xdc;" horiz-adv-x="1468" d="M137 477v957h246v-951q0 -135 97.5 -211.5t252.5 -76.5q156 0 254 76.5t98 211.5v951h246v-957q0 -221 -161.5 -364.5t-434.5 -143.5q-272 0 -435 143t-163 365zM369 1692q0 62 43 104.5t106 42.5q62 0 105 -43t43 -104q0 -62 -43.5 -106t-104.5 -44q-63 0 -106 44 t-43 106zM801 1692q0 61 43.5 104t105.5 43t105 -43t43 -104q0 -62 -43.5 -106t-104.5 -44t-105 44t-44 106z" />
<glyph unicode="&#xdd;" horiz-adv-x="1376" d="M20 1434h285l383 -588l383 588h285l-547 -822v-612h-246v612zM522 1649l561 462l134 -145l-564 -463z" />
<glyph unicode="&#xde;" horiz-adv-x="1419" d="M150 0v1434h245v-250h482q214 0 342.5 -128t128.5 -325q0 -211 -133 -338t-338 -127h-482v-266h-245zM395 487h469q110 0 172 70.5t62 173.5q0 102 -65 167t-169 65h-469v-476z" />
<glyph unicode="&#xdf;" horiz-adv-x="1226" d="M127 0v977q0 224 136 355.5t372 131.5q204 0 333.5 -107.5t129.5 -275.5q0 -132 -85.5 -222.5t-230.5 -113.5q169 -30 270 -134.5t101 -256.5q0 -170 -125 -277.5t-330 -107.5q-108 0 -223 35v211q93 -39 191 -39q110 0 176.5 58.5t66.5 156.5q0 104 -72.5 167t-191.5 63 h-106v210h106q95 0 156 58.5t61 150.5q0 97 -65 157t-168 60q-123 0 -191.5 -75t-68.5 -209v-973h-242z" />
<glyph unicode="&#xe0;" horiz-adv-x="1206" d="M41 1653l131 145l578 -469l-134 -147zM70 301q0 53 15.5 97t40 75.5t62.5 57t75.5 41.5t87.5 28.5t91 19.5t93 13q12 1 35 4q150 16 195 35q54 24 56 71q-2 81 -61 129t-162 48q-107 0 -178 -53t-82 -138h-244q17 172 157.5 280.5t350.5 108.5q215 0 335 -107t120 -284 v-491q0 -48 53 -48h59v-188h-114q-169 0 -197 127q-7 16 -10 37q-101 -187 -367 -187q-189 0 -300.5 86.5t-110.5 237.5zM313 317q0 -71 56 -110t161 -39q126 0 208.5 66.5t82.5 173.5v151q-28 -42 -89.5 -60.5t-170.5 -31.5q-49 -6 -78.5 -11t-66 -15.5t-56 -25.5 t-33.5 -40t-14 -58z" />
<glyph unicode="&#xe1;" horiz-adv-x="1206" d="M70 301q0 53 15.5 97t40 75.5t62.5 57t75.5 41.5t87.5 28.5t91 19.5t93 13q12 1 35 4q150 16 195 35q54 24 56 71q-2 81 -61 129t-162 48q-107 0 -178 -53t-82 -138h-244q17 172 157.5 280.5t350.5 108.5q215 0 335 -107t120 -284v-491q0 -48 53 -48h59v-188h-114 q-169 0 -197 127q-7 16 -10 37q-101 -187 -367 -187q-189 0 -300.5 86.5t-110.5 237.5zM313 317q0 -71 56 -110t161 -39q126 0 208.5 66.5t82.5 173.5v151q-28 -42 -89.5 -60.5t-170.5 -31.5q-49 -6 -78.5 -11t-66 -15.5t-56 -25.5t-33.5 -40t-14 -58zM418 1329l575 469 l133 -145l-577 -471z" />
<glyph unicode="&#xe2;" horiz-adv-x="1206" d="M70 301q0 53 15.5 97t40 75.5t62.5 57t75.5 41.5t87.5 28.5t91 19.5t93 13q12 1 35 4q150 16 195 35q54 24 56 71q-2 81 -61 129t-162 48q-107 0 -178 -53t-82 -138h-244q17 172 157.5 280.5t350.5 108.5q215 0 335 -107t120 -284v-491q0 -48 53 -48h59v-188h-114 q-169 0 -197 127q-7 16 -10 37q-101 -187 -367 -187q-189 0 -300.5 86.5t-110.5 237.5zM119 1317l385 348h160l380 -344l-145 -139l-317 297l-320 -297zM313 317q0 -71 56 -110t161 -39q126 0 208.5 66.5t82.5 173.5v151q-28 -42 -89.5 -60.5t-170.5 -31.5q-49 -6 -78.5 -11 t-66 -15.5t-56 -25.5t-33.5 -40t-14 -58z" />
<glyph unicode="&#xe3;" horiz-adv-x="1206" d="M70 301q0 53 15.5 97t40 75.5t62.5 57t75.5 41.5t87.5 28.5t91 19.5t93 13q12 1 35 4q150 16 195 35q54 24 56 71q-2 81 -61 129t-162 48q-107 0 -178 -53t-82 -138h-244q17 172 157.5 280.5t350.5 108.5q215 0 335 -107t120 -284v-491q0 -48 53 -48h59v-188h-114 q-169 0 -197 127q-7 16 -10 37q-101 -187 -367 -187q-189 0 -300.5 86.5t-110.5 237.5zM190 1286q0 144 59.5 230t158.5 86q47 0 96.5 -23t83.5 -50t71 -50t62 -23q65 0 65 129h189q0 -150 -50.5 -229.5t-144.5 -79.5q-48 0 -99.5 22.5t-87 50t-73 50t-61.5 22.5 q-34 0 -55 -38t-21 -97h-193zM313 317q0 -71 56 -110t161 -39q126 0 208.5 66.5t82.5 173.5v151q-28 -42 -89.5 -60.5t-170.5 -31.5q-49 -6 -78.5 -11t-66 -15.5t-56 -25.5t-33.5 -40t-14 -58z" />
<glyph unicode="&#xe4;" horiz-adv-x="1206" d="M70 301q0 53 15.5 97t40 75.5t62.5 57t75.5 41.5t87.5 28.5t91 19.5t93 13q12 1 35 4q150 16 195 35q54 24 56 71q-2 81 -61 129t-162 48q-107 0 -178 -53t-82 -138h-244q17 172 157.5 280.5t350.5 108.5q215 0 335 -107t120 -284v-491q0 -48 53 -48h59v-188h-114 q-169 0 -197 127q-7 16 -10 37q-101 -187 -367 -187q-189 0 -300.5 86.5t-110.5 237.5zM217 1362q0 62 43.5 104.5t106.5 42.5q61 0 104 -42.5t43 -104.5q0 -63 -42.5 -106.5t-104.5 -43.5q-63 0 -106.5 43.5t-43.5 106.5zM313 317q0 -71 56 -110t161 -39q126 0 208.5 66.5 t82.5 173.5v151q-28 -42 -89.5 -60.5t-170.5 -31.5q-49 -6 -78.5 -11t-66 -15.5t-56 -25.5t-33.5 -40t-14 -58zM649 1362q0 61 44 104t106 43q61 0 104 -42.5t43 -104.5q0 -63 -42.5 -106.5t-104.5 -43.5t-106 43.5t-44 106.5z" />
<glyph unicode="&#xe5;" horiz-adv-x="1206" d="M70 301q0 53 15.5 97t40 75.5t62.5 57t75.5 41.5t87.5 28.5t91 19.5t93 13q12 1 35 4q150 16 195 35q54 24 56 71q-2 81 -61 129t-162 48q-107 0 -178 -53t-82 -138h-244q17 172 157.5 280.5t350.5 108.5q215 0 335 -107t120 -284v-491q0 -48 53 -48h59v-188h-114 q-169 0 -197 127q-7 16 -10 37q-101 -187 -367 -187q-189 0 -300.5 86.5t-110.5 237.5zM313 317q0 -71 56 -110t161 -39q126 0 208.5 66.5t82.5 173.5v151q-28 -42 -89.5 -60.5t-170.5 -31.5q-49 -6 -78.5 -11t-66 -15.5t-56 -25.5t-33.5 -40t-14 -58zM344 1403q0 97 68 161 t170 64q101 0 169 -64t68 -161q0 -95 -68 -160t-169 -65t-169.5 65t-68.5 160zM485 1403q0 -40 26.5 -67t70.5 -27q43 0 69.5 27.5t26.5 66.5q0 40 -26.5 68t-69.5 28q-44 0 -70.5 -28t-26.5 -68z" />
<glyph unicode="&#xe6;" horiz-adv-x="1966" d="M70 301q0 53 15.5 97t40 75.5t62.5 57t75.5 41.5t87.5 28.5t91 19.5t93 13q12 1 35 4q150 16 195 35q54 24 56 71q-2 81 -61 129t-162 48q-107 0 -178 -53t-82 -138h-244q17 172 157.5 280.5t350.5 108.5q134 0 233 -44t156 -124q72 82 173 125t218 43 q232 0 373.5 -152.5t145.5 -414.5v-57h-816q12 -144 98 -232t222 -88q94 0 161 44.5t95 125.5h235q-41 -176 -171.5 -275.5t-321.5 -99.5q-171 0 -301 79t-197 218q-36 -136 -144.5 -212.5t-279.5 -76.5q-189 0 -300.5 86.5t-110.5 237.5zM313 317q0 -71 56 -110t161 -39 q128 0 209.5 69.5t81.5 190.5v131q-28 -42 -89.5 -60.5t-170.5 -31.5q-49 -6 -78.5 -11t-66 -15.5t-56 -25.5t-33.5 -40t-14 -58zM1096 664h555q-23 118 -93.5 183.5t-175.5 65.5q-107 0 -182.5 -66t-103.5 -183z" />
<glyph unicode="&#xe7;" horiz-adv-x="1204" d="M66 551q0 174 73.5 304t198.5 196.5t283 66.5q221 0 362 -124t156 -328h-238q-17 113 -92.5 179t-190.5 66q-139 0 -223 -97.5t-84 -262.5q0 -174 88.5 -274.5t227.5 -100.5q110 0 182.5 66.5t91.5 183.5h238q-19 -187 -131 -306.5t-291 -144.5l-154 -438l-188 37 l141 403q-211 36 -330.5 193.5t-119.5 380.5z" />
<glyph unicode="&#xe8;" horiz-adv-x="1187" d="M57 1653l131 145l578 -469l-133 -147zM66 539q0 131 41.5 241t114 183.5t171 114t211.5 40.5q232 0 373 -152.5t145 -414.5v-57h-815q12 -144 98 -232t222 -88q94 0 161 44.5t95 125.5h235q-41 -176 -171.5 -275.5t-321.5 -99.5q-248 0 -403.5 160t-155.5 410zM317 664 h555q-23 118 -93 183.5t-175 65.5q-107 0 -183 -66t-104 -183z" />
<glyph unicode="&#xe9;" horiz-adv-x="1187" d="M66 539q0 131 41.5 241t114 183.5t171 114t211.5 40.5q232 0 373 -152.5t145 -414.5v-57h-815q12 -144 98 -232t222 -88q94 0 161 44.5t95 125.5h235q-41 -176 -171.5 -275.5t-321.5 -99.5q-248 0 -403.5 160t-155.5 410zM317 664h555q-23 118 -93 183.5t-175 65.5 q-107 0 -183 -66t-104 -183zM434 1329l576 469l133 -145l-578 -471z" />
<glyph unicode="&#xea;" horiz-adv-x="1187" d="M66 539q0 131 41.5 241t114 183.5t171 114t211.5 40.5q232 0 373 -152.5t145 -414.5v-57h-815q12 -144 98 -232t222 -88q94 0 161 44.5t95 125.5h235q-41 -176 -171.5 -275.5t-321.5 -99.5q-248 0 -403.5 160t-155.5 410zM135 1317l385 348h160l381 -344l-146 -139 l-317 297l-319 -297zM317 664h555q-23 118 -93 183.5t-175 65.5q-107 0 -183 -66t-104 -183z" />
<glyph unicode="&#xeb;" horiz-adv-x="1187" d="M66 539q0 131 41.5 241t114 183.5t171 114t211.5 40.5q232 0 373 -152.5t145 -414.5v-57h-815q12 -144 98 -232t222 -88q94 0 161 44.5t95 125.5h235q-41 -176 -171.5 -275.5t-321.5 -99.5q-248 0 -403.5 160t-155.5 410zM233 1362q0 62 43.5 104.5t106.5 42.5 q61 0 104 -42.5t43 -104.5q0 -63 -42.5 -106.5t-104.5 -43.5q-63 0 -106.5 43.5t-43.5 106.5zM317 664h555q-23 118 -93 183.5t-175 65.5q-107 0 -183 -66t-104 -183zM666 1362q0 61 43.5 104t105.5 43t105 -43t43 -104q0 -63 -43 -106.5t-105 -43.5t-105.5 43.5 t-43.5 106.5z" />
<glyph unicode="&#xec;" horiz-adv-x="489" d="M-297 1653l131 145l578 -469l-133 -147zM123 0l2 1085h242l-2 -1085h-242z" />
<glyph unicode="&#xed;" horiz-adv-x="489" d="M82 1329l575 469l134 -145l-578 -471zM123 0l2 1085h242l-2 -1085h-242z" />
<glyph unicode="&#xee;" horiz-adv-x="489" d="M-217 1317l385 348h160l381 -344l-146 -139l-317 297l-320 -297zM123 0l2 1085h242l-2 -1085h-242z" />
<glyph unicode="&#xef;" horiz-adv-x="489" d="M-121 1362q0 61 44.5 104t107.5 43q61 0 104 -42.5t43 -104.5q0 -63 -42.5 -106.5t-104.5 -43.5q-63 0 -107.5 43.5t-44.5 106.5zM123 0l2 1085h242l-2 -1085h-242zM313 1362q0 61 44 104t106 43q61 0 104 -42.5t43 -104.5q0 -63 -42.5 -106.5t-104.5 -43.5t-106 43.5 t-44 106.5z" />
<glyph unicode="&#xf0;" horiz-adv-x="1228" d="M66 506q0 225 134.5 365.5t344.5 140.5q111 0 199 -43.5t143 -122.5q-44 201 -225 332l-386 -150l-71 162l248 94q-104 41 -232 68l55 200q265 -56 445 -163l334 127l69 -158l-241 -94q254 -236 254 -625q0 -306 -150.5 -488t-400.5 -182q-227 0 -373.5 151t-146.5 386z M311 498q0 -140 80.5 -231t204.5 -91t201 89.5t77 234.5q0 137 -78 224t-202 87q-125 0 -204 -87t-79 -226z" />
<glyph unicode="&#xf1;" horiz-adv-x="1196" d="M123 0v1085h194l21 -159q52 87 150 139.5t217 52.5q174 0 278 -108t104 -291v-719h-241v707q0 92 -57.5 146t-157.5 54q-117 0 -190.5 -71.5t-75.5 -178.5v-657h-242zM229 1286q0 144 59 230t158 86q47 0 97 -23t84 -50t71 -50t62 -23q65 0 65 129h189 q0 -150 -50.5 -229.5t-144.5 -79.5q-48 0 -99.5 22.5t-87 50t-73 50t-61.5 22.5q-34 0 -55 -38t-21 -97h-193z" />
<glyph unicode="&#xf2;" d="M66 553q0 173 73.5 302.5t199 196t284.5 66.5q128 0 233.5 -43.5t175.5 -119.5t108 -179t38 -223q0 -135 -41 -245.5t-115 -184.5t-176 -114t-223 -40q-258 0 -407.5 163t-149.5 421zM80 1653l131 145l577 -469l-133 -147zM311 553q0 -174 87.5 -275.5t224.5 -101.5 q143 0 226 105t83 272q0 162 -84 260t-225 98t-226.5 -98.5t-85.5 -259.5z" />
<glyph unicode="&#xf3;" d="M66 553q0 173 73.5 302.5t199 196t284.5 66.5q128 0 233.5 -43.5t175.5 -119.5t108 -179t38 -223q0 -135 -41 -245.5t-115 -184.5t-176 -114t-223 -40q-258 0 -407.5 163t-149.5 421zM311 553q0 -174 87.5 -275.5t224.5 -101.5q143 0 226 105t83 272q0 162 -84 260 t-225 98t-226.5 -98.5t-85.5 -259.5zM457 1329l575 469l133 -145l-577 -471z" />
<glyph unicode="&#xf4;" d="M66 553q0 173 73.5 302.5t199 196t284.5 66.5q128 0 233.5 -43.5t175.5 -119.5t108 -179t38 -223q0 -135 -41 -245.5t-115 -184.5t-176 -114t-223 -40q-258 0 -407.5 163t-149.5 421zM160 1317l385 348h160l380 -344l-145 -139l-317 297l-320 -297zM311 553 q0 -174 87.5 -275.5t224.5 -101.5q143 0 226 105t83 272q0 162 -84 260t-225 98t-226.5 -98.5t-85.5 -259.5z" />
<glyph unicode="&#xf5;" d="M66 553q0 173 73.5 302.5t199 196t284.5 66.5q128 0 233.5 -43.5t175.5 -119.5t108 -179t38 -223q0 -135 -41 -245.5t-115 -184.5t-176 -114t-223 -40q-258 0 -407.5 163t-149.5 421zM229 1286q0 144 59 230t158 86q47 0 97 -23t84 -50t71 -50t62 -23q65 0 65 129h189 q0 -150 -50.5 -229.5t-144.5 -79.5q-48 0 -99.5 22.5t-87 50t-73 50t-61.5 22.5q-34 0 -55 -38t-21 -97h-193zM311 553q0 -174 87.5 -275.5t224.5 -101.5q143 0 226 105t83 272q0 162 -84 260t-225 98t-226.5 -98.5t-85.5 -259.5z" />
<glyph unicode="&#xf6;" d="M66 553q0 173 73.5 302.5t199 196t284.5 66.5q128 0 233.5 -43.5t175.5 -119.5t108 -179t38 -223q0 -135 -41 -245.5t-115 -184.5t-176 -114t-223 -40q-258 0 -407.5 163t-149.5 421zM258 1362q0 62 43.5 104.5t106.5 42.5q62 0 104.5 -42.5t42.5 -104.5 q0 -63 -42.5 -106.5t-104.5 -43.5q-63 0 -106.5 43.5t-43.5 106.5zM311 553q0 -174 87.5 -275.5t224.5 -101.5q143 0 226 105t83 272q0 162 -84 260t-225 98t-226.5 -98.5t-85.5 -259.5zM690 1362q0 61 44 104t106 43t104.5 -42.5t42.5 -104.5q0 -63 -42.5 -106.5 t-104.5 -43.5t-106 43.5t-44 106.5z" />
<glyph unicode="&#xf7;" horiz-adv-x="1189" d="M76 528v199h1040v-199h-1040zM438 233q0 65 45 109.5t113 44.5q67 0 112.5 -44.5t45.5 -109.5q0 -68 -45.5 -113.5t-112.5 -45.5q-69 0 -113.5 45.5t-44.5 113.5zM438 1030q0 66 44.5 110t113.5 44q68 0 113 -44t45 -110q0 -68 -45 -113t-113 -45q-69 0 -113.5 45 t-44.5 113z" />
<glyph unicode="&#xf8;" d="M66 553q0 173 73.5 302.5t199 196t284.5 66.5q175 0 307 -80l108 138l111 -72l-117 -150q146 -155 146 -401q0 -135 -41 -245.5t-115 -184.5t-176 -114t-223 -40q-173 0 -304 78l-112 -143l-107 71l119 152q-153 159 -153 426zM311 553q0 -142 58 -234l424 543 q-74 49 -170 49q-141 0 -226.5 -98.5t-85.5 -259.5zM459 223q71 -47 164 -47q143 0 226 105t83 272q0 121 -49 211z" />
<glyph unicode="&#xf9;" horiz-adv-x="1191" d="M45 1653l131 145l578 -469l-133 -147zM104 367v718h242v-708q0 -91 58.5 -143t156.5 -52q121 0 192.5 70t73.5 178v655h242v-1085h-195l-18 158q-47 -88 -138.5 -138.5t-205.5 -50.5q-191 0 -299.5 109t-108.5 289z" />
<glyph unicode="&#xfa;" horiz-adv-x="1191" d="M104 367v718h242v-708q0 -91 58.5 -143t156.5 -52q121 0 192.5 70t73.5 178v655h242v-1085h-195l-18 158q-47 -88 -138.5 -138.5t-205.5 -50.5q-191 0 -299.5 109t-108.5 289zM422 1329l575 469l133 -145l-577 -471z" />
<glyph unicode="&#xfb;" horiz-adv-x="1191" d="M104 367v718h242v-708q0 -91 58.5 -143t156.5 -52q121 0 192.5 70t73.5 178v655h242v-1085h-195l-18 158q-47 -88 -138.5 -138.5t-205.5 -50.5q-191 0 -299.5 109t-108.5 289zM125 1317l385 348h160l381 -344l-146 -139l-317 297l-320 -297z" />
<glyph unicode="&#xfc;" horiz-adv-x="1191" d="M104 367v718h242v-708q0 -91 58.5 -143t156.5 -52q121 0 192.5 70t73.5 178v655h242v-1085h-195l-18 158q-47 -88 -138.5 -138.5t-205.5 -50.5q-191 0 -299.5 109t-108.5 289zM223 1362q0 62 43.5 104.5t106.5 42.5q61 0 104 -42.5t43 -104.5q0 -63 -42.5 -106.5 t-104.5 -43.5q-63 0 -106.5 43.5t-43.5 106.5zM655 1362q0 61 44 104t106 43q61 0 104 -42.5t43 -104.5q0 -63 -42.5 -106.5t-104.5 -43.5t-106 43.5t-44 106.5z" />
<glyph unicode="&#xfd;" horiz-adv-x="1181" d="M27 1085h260l311 -823l305 823h252l-473 -1271q-42 -112 -134.5 -168t-248.5 -56h-197v205h197q128 0 160 90l43 115h-45zM430 1329l576 469l133 -145l-578 -471z" />
<glyph unicode="&#xfe;" horiz-adv-x="1284" d="M127 -410v1946h242v-592q58 81 152 127.5t208 46.5q216 0 353 -158.5t137 -410.5q0 -256 -137.5 -418t-354.5 -162q-115 0 -208.5 48.5t-149.5 134.5v-562h-242zM369 555q0 -168 85 -274.5t220 -106.5q132 0 214.5 104.5t82.5 270.5q0 162 -83 263t-216 101 q-134 0 -218.5 -100t-84.5 -258z" />
<glyph unicode="&#xff;" horiz-adv-x="1181" d="M27 1085h260l311 -823l305 823h252l-473 -1271q-42 -112 -134.5 -168t-248.5 -56h-197v205h197q128 0 160 90l43 115h-45zM231 1362q0 62 43.5 104.5t106.5 42.5q61 0 104 -42.5t43 -104.5q0 -63 -42.5 -106.5t-104.5 -43.5q-63 0 -106.5 43.5t-43.5 106.5zM664 1362 q0 61 43.5 104t105.5 43t105 -43t43 -104q0 -63 -43 -106.5t-105 -43.5t-105.5 43.5t-43.5 106.5z" />
<glyph unicode="&#x152;" horiz-adv-x="2377" d="M84 721q0 162 50.5 299t142 235.5t226 153.5t296.5 55q146 0 267.5 -55t209.5 -156v181h1003v-222h-759v-368h688v-215h-688v-408h778v-221h-1022v186q-179 -217 -477 -217q-158 0 -290.5 53.5t-226 150.5t-146 238t-52.5 310zM334 721q0 -243 125.5 -385.5t339.5 -142.5 q215 0 342 142.5t127 385.5q0 239 -127 380.5t-342 141.5q-214 0 -339.5 -141.5t-125.5 -380.5z" />
<glyph unicode="&#x153;" horiz-adv-x="2138" d="M66 553q0 173 73.5 302.5t199 196t284.5 66.5q162 0 284 -67.5t191 -186.5q70 121 189 187.5t265 66.5q232 0 374.5 -152.5t146.5 -414.5v-57h-818q12 -144 98.5 -232t221.5 -88q95 0 162 44t96 126h235q-41 -175 -172.5 -275t-322.5 -100q-157 0 -280 67.5t-195 188.5 q-70 -123 -194 -189.5t-281 -66.5q-258 0 -407.5 163t-149.5 421zM311 553q0 -174 87.5 -275.5t224.5 -101.5q143 0 226 105t83 272q0 162 -84 260t-225 98t-226.5 -98.5t-85.5 -259.5zM1268 664h555q-23 118 -94 183.5t-177 65.5t-182 -66t-102 -183z" />
<glyph unicode="&#x178;" horiz-adv-x="1376" d="M20 1434h285l383 -588l383 588h285l-547 -822v-612h-246v612zM324 1692q0 62 43 104.5t106 42.5q62 0 105 -43t43 -104q0 -62 -43.5 -106t-104.5 -44q-63 0 -106 44t-43 106zM756 1692q0 61 43.5 104t105.5 43t105 -43t43 -104q0 -62 -43.5 -106t-104.5 -44t-105 44 t-44 106z" />
<glyph unicode="&#x2c6;" horiz-adv-x="958" d="M16 1317l385 348h160l381 -344l-145 -139l-318 297l-319 -297z" />
<glyph unicode="&#x2dc;" horiz-adv-x="911" d="M63 1286q0 144 59.5 230t158.5 86q47 0 96.5 -23t83.5 -50t71 -50t62 -23q65 0 65 129h189q0 -150 -50.5 -229.5t-144.5 -79.5q-48 0 -99.5 22.5t-87 50t-73 50t-61.5 22.5q-34 0 -55 -38t-21 -97h-193z" />
<glyph unicode="&#x2000;" horiz-adv-x="1055" />
<glyph unicode="&#x2001;" horiz-adv-x="2111" />
<glyph unicode="&#x2002;" horiz-adv-x="1055" />
<glyph unicode="&#x2003;" horiz-adv-x="2111" />
<glyph unicode="&#x2004;" horiz-adv-x="703" />
<glyph unicode="&#x2005;" horiz-adv-x="527" />
<glyph unicode="&#x2006;" horiz-adv-x="351" />
<glyph unicode="&#x2007;" horiz-adv-x="351" />
<glyph unicode="&#x2008;" horiz-adv-x="263" />
<glyph unicode="&#x2009;" horiz-adv-x="422" />
<glyph unicode="&#x200a;" horiz-adv-x="117" />
<glyph unicode="&#x2010;" horiz-adv-x="1067" d="M76 528v199h915v-199h-915z" />
<glyph unicode="&#x2011;" horiz-adv-x="1067" d="M76 528v199h915v-199h-915z" />
<glyph unicode="&#x2012;" horiz-adv-x="1067" d="M76 528v199h915v-199h-915z" />
<glyph unicode="&#x2013;" horiz-adv-x="1105" d="M76 528v199h956v-199h-956z" />
<glyph unicode="&#x2014;" horiz-adv-x="1814" d="M76 528v199h1663v-199h-1663z" />
<glyph unicode="&#x2018;" horiz-adv-x="509" d="M80 885l233 708l187 -57l-226 -711z" />
<glyph unicode="&#x2019;" horiz-adv-x="509" d="M80 885l225 712l195 -59l-236 -711z" />
<glyph unicode="&#x201a;" horiz-adv-x="505" d="M10 -350l226 712l194 -59l-233 -711z" />
<glyph unicode="&#x201c;" horiz-adv-x="897" d="M80 885l233 710l187 -57l-226 -713zM467 885l233 710l187 -57l-225 -713z" />
<glyph unicode="&#x201d;" horiz-adv-x="897" d="M80 885l225 712l195 -59l-236 -711zM467 885l225 712l195 -59l-236 -711z" />
<glyph unicode="&#x201e;" horiz-adv-x="892" d="M10 -350l226 712l194 -59l-233 -711zM397 -350l226 712l194 -59l-233 -711z" />
<glyph unicode="&#x2022;" horiz-adv-x="669" d="M94 649q0 103 69.5 172.5t170.5 69.5q103 0 172 -69.5t69 -172.5q0 -101 -69 -170t-172 -69q-101 0 -170.5 69t-69.5 170z" />
<glyph unicode="&#x2026;" horiz-adv-x="1372" d="M78 131q0 66 44.5 111t110.5 45q67 0 112.5 -45t45.5 -111q0 -67 -45.5 -112.5t-112.5 -45.5q-66 0 -110.5 45.5t-44.5 112.5zM528 131q0 66 45.5 111t112.5 45t112.5 -45t45.5 -111q0 -67 -45 -112.5t-113 -45.5t-113 45.5t-45 112.5zM981 131q0 66 45 111t111 45 q67 0 112 -45t45 -111q0 -68 -45 -113t-112 -45q-66 0 -111 45.5t-45 112.5z" />
<glyph unicode="&#x202f;" horiz-adv-x="422" />
<glyph unicode="&#x2039;" horiz-adv-x="716" d="M76 471v201l432 432l143 -133l-397 -400l405 -403l-147 -133z" />
<glyph unicode="&#x203a;" horiz-adv-x="716" d="M57 168l406 403l-397 400l143 133l432 -432v-201l-436 -436z" />
<glyph unicode="&#x205f;" horiz-adv-x="527" />
<glyph unicode="&#x20ac;" horiz-adv-x="1716" d="M31 504v145h192q-2 23 -2 72q0 31 2 47h-192v147h211q53 252 237.5 400.5t462.5 148.5q280 0 462 -154t228 -429h-252q-34 169 -151 265.5t-287 96.5q-167 0 -282 -86.5t-160 -241.5h624v-147h-649q-2 -16 -2 -47q0 -49 2 -72h649v-145h-620q47 -148 161.5 -229.5 t276.5 -81.5q173 0 288.5 95t149.5 265h252q-50 -280 -229.5 -432t-460.5 -152q-271 0 -454.5 144t-241.5 391h-215z" />
<glyph unicode="&#x2122;" horiz-adv-x="1441" d="M39 1307v127h561v-127h-211v-566h-137v566h-213zM643 741v693h150l208 -539l207 539h148v-693h-137v406l-156 -406h-127l-154 400v-400h-139z" />
<glyph unicode="&#x25fc;" horiz-adv-x="1085" d="M0 0v1085h1085v-1085h-1085z" />
<glyph unicode="&#xfb01;" horiz-adv-x="1230" d="M53 881v204h191v136q0 154 88.5 234.5t257.5 80.5h143v-205h-127q-59 0 -90 -33t-31 -94v-119h625v-1085h-244v881h-381v-881h-241v881h-191zM831 1386q0 66 45 111t111 45q67 0 111.5 -45t44.5 -111t-44.5 -111.5t-111.5 -45.5q-66 0 -111 45.5t-45 111.5z" />
<glyph unicode="&#xfb02;" horiz-adv-x="1257" d="M53 881v204h191v136q0 154 88.5 234.5t257.5 80.5h543v-1536h-244v1331h-283q-59 0 -90 -33t-31 -94v-119h316v-204h-316v-881h-241v881h-191z" />
<glyph unicode="&#xfb03;" horiz-adv-x="1884" d="M53 881v204h191v136q0 154 88.5 234.5t257.5 80.5h235v-205h-219q-59 0 -90 -33t-31 -94v-119h410v136q0 154 88.5 234.5t257.5 80.5h143v-205h-127q-118 0 -118 -127v-119h624v-1085h-243v881h-381v-881h-244v881h-410v-881h-241v881h-191zM1485 1386q0 66 44.5 111 t110.5 45q67 0 111.5 -45t44.5 -111t-44.5 -111.5t-111.5 -45.5q-66 0 -110.5 45.5t-44.5 111.5z" />
</font>
</defs>
</svg>
